<?xml version="1.0" encoding="utf-8"?>
<!-- Generator: Adobe Illustrator 19.0.0, SVG Export Plug-In . SVG Version: 6.00 Build 0)  -->
<svg version="1.1" id="Camada_1" xmlns="http://www.w3.org/2000/svg" xmlns:xlink="http://www.w3.org/1999/xlink" x="0px" y="0px"
	 viewBox="31 -11 70 70" style="enable-background:new 31 -11 70 70;" xml:space="preserve">
<g id="XMLID_1_">
	<path id="XMLID_20_" d="M86.5,22.3c2.5-2.4,4.1-5.9,4.1-9.6c0-7.4-6.1-13.5-13.5-13.5c-6,0-11.2,4-12.9,9.5C61.5,6.4,58,5,54.1,5
		c-8.6,0-15.5,7-15.5,15.5c0,0.3,0,0.7,0,1c-4,1.7-6.8,5.7-6.8,10.3c0,5.7,4.2,10.3,9.6,11.1C41.9,43,42.5,43,43,43h37.5
		c0.6,0,1.1,0,1.6-0.1c5.4-0.8,9.6-5.5,9.6-11.1C91.8,27.8,89.7,24.3,86.5,22.3z M77.1,1.8c6,0,10.9,4.9,10.9,10.9
		c0,3-1.2,5.7-3.2,7.7c-0.6-6.1-5.8-11-12-11c-2.3,0-4.4,0.6-6.2,1.7c0-0.1-0.1-0.1-0.1-0.2C67.2,5.8,71.7,1.8,77.1,1.8z M82.2,39.7
		c-0.5,0.1-1.1,0.2-1.6,0.2c-0.6,0-1.6,0-1.6,0h-6.3H51h-6.3c0,0-1.1,0-1.6,0c-0.6,0-1.1-0.1-1.6-0.2c-3.6-0.8-6.4-4-6.4-7.8
		c0-3,1.7-5.6,4.1-7c0.7-0.4,1.4-0.7,2.2-0.8C41.7,24,42,24,42.3,24c-0.3-1-0.5-2.1-0.5-3.2c0-0.1,0-0.1,0-0.2
		c0-1.8,0.4-3.6,1.1-5.2c2-4.2,6.2-7.1,11.1-7.1c3.8,0,7.2,1.8,9.5,4.5c0.1,0.1,0.2,0.3,0.4,0.4c0.5,0.7,0.9,1.4,1.3,2.1
		c0.1,0.3,0.3,0.6,0.4,1c0.3-0.3,0.5-0.7,0.8-1c0,0,0,0,0.1-0.1c0.5-0.5,1.1-0.9,1.7-1.3c1.3-0.8,2.9-1.3,4.5-1.3
		c2.5,0,4.7,1,6.3,2.6c1.4,1.4,2.3,3.3,2.5,5.3c0,0.3,0,0.6,0,0.9c0,0.4,0,0.8-0.1,1.1c-0.1,0.4-0.1,0.9-0.3,1.3
		c0.3,0,0.6,0.1,0.9,0.1c0.5,0.1,1,0.3,1.4,0.5c0.3,0.1,0.5,0.2,0.8,0.3c2.5,1.4,4.2,4,4.2,7C88.5,35.7,85.8,38.9,82.2,39.7z"/>
	<path id="XMLID_22_" d="M77.1-2.9c0.7,0,1.3-0.6,1.3-1.3v-5c0-0.7-0.6-1.3-1.3-1.3s-1.3,0.6-1.3,1.3v5C75.8-3.5,76.3-2.9,77.1-2.9z
		"/>
	<path id="XMLID_23_" d="M89,2.1c0.3,0,0.7-0.1,0.9-0.4l3.5-3.5c0.5-0.5,0.5-1.3,0-1.8s-1.3-0.5-1.8,0l-3.5,3.5
		c-0.5,0.5-0.5,1.3,0,1.8C88.3,1.9,88.6,2.1,89,2.1z"/>
	<path id="XMLID_24_" d="M98.9,11.4h-5c-0.7,0-1.3,0.6-1.3,1.3s0.6,1.3,1.3,1.3h5c0.7,0,1.3-0.6,1.3-1.3S99.6,11.4,98.9,11.4z"/>
	<path id="XMLID_25_" d="M64.2,1.7c0.3,0.3,0.6,0.4,0.9,0.4c0.3,0,0.7-0.1,0.9-0.4c0.5-0.5,0.5-1.3,0-1.8l-3.5-3.5
		c-0.5-0.5-1.3-0.5-1.8,0s-0.5,1.3,0,1.8L64.2,1.7z"/>
</g>
</svg>
