<?xml version="1.0" encoding="utf-8"?>
<!-- Generator: Adobe Illustrator 19.0.0, SVG Export Plug-In . SVG Version: 6.00 Build 0)  -->
<svg version="1.1" id="Camada_1" xmlns="http://www.w3.org/2000/svg" xmlns:xlink="http://www.w3.org/1999/xlink" x="0px" y="0px"
	 viewBox="0 0 70 70" style="enable-background:new 0 0 70 70;" xml:space="preserve">
<g id="XMLID_1_">
	<g id="XMLID_2_">
		<path id="XMLID_22_" d="M46.1,8.6c0.7,0,1.3-0.6,1.3-1.3v-5c0-0.7-0.6-1.3-1.3-1.3s-1.3,0.6-1.3,1.3v5C44.8,8.1,45.3,8.6,46.1,8.6
			z"/>
		<path id="XMLID_23_" d="M58,13.6c0.3,0,0.7-0.1,0.9-0.4l3.5-3.5c0.5-0.5,0.5-1.3,0-1.8c-0.5-0.5-1.3-0.5-1.8,0l-3.5,3.5
			c-0.5,0.5-0.5,1.3,0,1.8C57.3,13.4,57.6,13.6,58,13.6z"/>
		<path id="XMLID_24_" d="M67.9,22.9h-5c-0.7,0-1.3,0.6-1.3,1.3s0.6,1.3,1.3,1.3h5c0.7,0,1.3-0.6,1.3-1.3S68.6,22.9,67.9,22.9z"/>
		<path id="XMLID_25_" d="M33.2,13.2c0.3,0.3,0.6,0.4,0.9,0.4c0.3,0,0.7-0.1,0.9-0.4c0.5-0.5,0.5-1.3,0-1.8l-3.5-3.5
			c-0.5-0.5-1.3-0.5-1.8,0c-0.5,0.5-0.5,1.3,0,1.8L33.2,13.2z"/>
	</g>
</g>
<g id="XMLID_4_">
	<path id="XMLID_33_" d="M46.1,8.6c0.7,0,1.3-0.6,1.3-1.3v-5c0-0.7-0.6-1.3-1.3-1.3s-1.3,0.6-1.3,1.3v5C44.8,8.1,45.3,8.6,46.1,8.6z
		"/>
	<path id="XMLID_34_" d="M58,13.6c0.3,0,0.7-0.1,0.9-0.4l3.5-3.5c0.5-0.5,0.5-1.3,0-1.8c-0.5-0.5-1.3-0.5-1.8,0l-3.5,3.5
		c-0.5,0.5-0.5,1.3,0,1.8C57.3,13.5,57.6,13.6,58,13.6z"/>
	<path id="XMLID_35_" d="M67.9,22.9h-5c-0.7,0-1.3,0.6-1.3,1.3s0.6,1.3,1.3,1.3h5c0.7,0,1.3-0.6,1.3-1.3S68.6,22.9,67.9,22.9z"/>
	<path id="XMLID_36_" d="M33.2,13.2c0.3,0.3,0.6,0.4,0.9,0.4c0.3,0,0.7-0.1,0.9-0.4c0.5-0.5,0.5-1.3,0-1.8l-3.5-3.5
		c-0.5-0.5-1.3-0.5-1.8,0c-0.5,0.5-0.5,1.3,0,1.8L33.2,13.2z"/>
	<path id="XMLID_27_" d="M55.5,33.8c2.5-2.4,4.1-5.9,4.1-9.6c0-7.4-6.1-13.5-13.5-13.5c-6,0-11.2,4-12.9,9.5
		c-2.7-2.3-6.2-3.7-10.1-3.7c-8.6,0-15.5,7-15.5,15.5c0,0.3,0,0.7,0,1c-4,1.7-6.8,5.7-6.8,10.3c0,5.7,4.2,10.3,9.6,11.1
		c0.5,0.1,1.1,0.1,1.6,0.1H24l-0.6,1.5c-0.1,0.4-0.1,0.8,0.1,1.1c0.2,0.3,0.6,0.5,1,0.5h3.9l-4.7,10.6c-0.2,0.5,0,1.2,0.5,1.5
		c0.2,0.1,0.4,0.2,0.6,0.2c0.3,0,0.7-0.1,0.9-0.4l12.9-15h10.9c0.6,0,1.1,0,1.6-0.1c5.4-0.8,9.6-5.5,9.6-11.1
		C60.8,39.3,58.7,35.8,55.5,33.8z M46.1,13.3c6,0,10.9,4.9,10.9,10.9c0,3-1.2,5.7-3.2,7.7c-0.6-6.1-5.8-11-12-11
		c-2.3,0-4.4,0.6-6.2,1.7c0-0.1-0.1-0.1-0.1-0.2C36.2,17.3,40.7,13.3,46.1,13.3z M29.2,61.9l1.8-4.2l0.7-1.6
		c0.2-0.4-0.1-0.8-0.5-0.8h-1.7h-3.3l0.3-0.7l1.2-3.3l3.9-10.4h7.2l-4.3,7.7l-0.8,1.5c-0.2,0.4,0.1,0.9,0.5,0.9H36h2.6l-0.3,0.3
		l-2.8,3.3L29.2,61.9z M51.2,51.2c-0.5,0.1-1.1,0.2-1.6,0.2c-0.6,0-1.6,0-1.6,0h-6.3h-0.1l0.6-0.8c0.3-0.4,0.4-0.9,0.2-1.3
		s-0.6-0.7-1.1-0.7h-3.9l4.6-8.3c0.2-0.4,0.2-0.8,0-1.2c-0.2-0.4-0.6-0.6-1-0.6h-10c-0.5,0-0.9,0.3-1.1,0.8l-4.5,12H20h-6.3
		c0,0-1.1,0-1.6,0c-0.6,0-1.1-0.1-1.6-0.2c-3.6-0.8-6.4-4-6.4-7.8c0-3,1.7-5.6,4.1-7c0.7-0.4,1.4-0.7,2.2-0.8
		c0.3-0.1,0.6-0.1,0.9-0.1c-0.3-1-0.5-2.1-0.5-3.2c0-0.1,0-0.1,0-0.2c0-1.8,0.4-3.6,1.1-5.2c2-4.2,6.2-7.1,11.1-7.1
		c3.8,0,7.2,1.8,9.5,4.5c0.1,0.1,0.2,0.3,0.4,0.4c0.5,0.7,0.9,1.4,1.3,2.1c0.1,0.3,0.3,0.6,0.4,1c0.3-0.3,0.5-0.7,0.8-1
		c0,0,0,0,0.1-0.1c0.5-0.5,1.1-0.9,1.7-1.3c1.3-0.8,2.9-1.3,4.5-1.3c2.5,0,4.7,1,6.3,2.6c1.4,1.4,2.3,3.3,2.5,5.3c0,0.3,0,0.6,0,0.9
		c0,0.4,0,0.8-0.1,1.1c-0.1,0.4-0.1,0.9-0.3,1.3c0.3,0,0.6,0.1,0.9,0.1c0.5,0.1,1,0.3,1.4,0.5c0.3,0.1,0.5,0.2,0.8,0.3
		c2.5,1.4,4.2,4,4.2,7C57.5,47.2,54.8,50.4,51.2,51.2z"/>
</g>
</svg>
