<?xml version="1.0" encoding="utf-8"?>
<!-- Generator: Adobe Illustrator 19.0.0, SVG Export Plug-In . SVG Version: 6.00 Build 0)  -->
<svg version="1.1" id="Camada_1" xmlns="http://www.w3.org/2000/svg" xmlns:xlink="http://www.w3.org/1999/xlink" x="0px" y="0px"
	 viewBox="0 0 70 70" style="enable-background:new 0 0 70 70;" xml:space="preserve">
<g id="XMLID_2_">
	<g id="XMLID_5_">
		<path id="XMLID_30_" d="M27.6,58.8c-0.4-0.7-1.3-1-2-0.6l-1.7,1v-1.9c0-0.8-0.7-1.5-1.5-1.5c-0.8,0-1.5,0.7-1.5,1.5v1.9l-1.7-1
			c-0.7-0.4-1.6-0.2-2,0.6c-0.4,0.7-0.2,1.6,0.6,2l1.6,0.9l-1.6,0.9c-0.7,0.4-1,1.3-0.6,2c0.3,0.5,0.8,0.8,1.3,0.8
			c0.3,0,0.5-0.1,0.7-0.2l1.7-1v1.9c0,0.8,0.7,1.5,1.5,1.5c0.8,0,1.5-0.7,1.5-1.5v-1.9l1.7,1c0.2,0.1,0.5,0.2,0.7,0.2
			c0.5,0,1-0.3,1.3-0.8c0.4-0.7,0.2-1.6-0.6-2l-1.6-0.9l1.6-0.9C27.8,60.4,28.1,59.5,27.6,58.8z"/>
		<path id="XMLID_31_" d="M52.2,62.7l-1.6-0.9l1.6-0.9c0.7-0.4,1-1.3,0.6-2c-0.4-0.7-1.3-1-2-0.6l-1.7,1v-1.9c0-0.8-0.7-1.5-1.5-1.5
			c-0.8,0-1.5,0.7-1.5,1.5v1.9l-1.7-1c-0.7-0.4-1.6-0.2-2,0.6c-0.4,0.7-0.2,1.6,0.6,2l1.6,0.9l-1.6,0.9c-0.7,0.4-1,1.3-0.6,2
			c0.3,0.5,0.8,0.8,1.3,0.8c0.3,0,0.5-0.1,0.7-0.2l1.7-1v1.9c0,0.8,0.7,1.5,1.5,1.5c0.8,0,1.5-0.7,1.5-1.5v-1.9l1.7,1
			c0.2,0.1,0.5,0.2,0.7,0.2c0.5,0,1-0.3,1.3-0.8C53.2,64.1,52.9,63.1,52.2,62.7z"/>
		<path id="XMLID_32_" d="M40.2,60.8c-0.4-0.7-1.3-1-2-0.6l-1.7,1v-1.9c0-0.8-0.7-1.5-1.5-1.5c-0.8,0-1.5,0.7-1.5,1.5v1.9l-1.7-1
			c-0.7-0.4-1.6-0.2-2,0.6c-0.4,0.7-0.2,1.6,0.6,2l1.6,0.9l-1.6,0.9c-0.7,0.4-1,1.3-0.6,2c0.3,0.5,0.8,0.8,1.3,0.8
			c0.3,0,0.5-0.1,0.7-0.2l1.7-1v1.9c0,0.8,0.7,1.5,1.5,1.5c0.8,0,1.5-0.7,1.5-1.5v-1.9l1.7,1c0.2,0.1,0.5,0.2,0.7,0.2
			c0.5,0,1-0.3,1.3-0.8c0.4-0.7,0.2-1.6-0.6-2L38,63.8l1.6-0.9C40.4,62.4,40.6,61.5,40.2,60.8z"/>
	</g>
	<path id="XMLID_36_" d="M58,32.7c0-6.6-5.5-12-12.1-12c-2.3,0-4.4,0.6-6.2,1.7c-2.8-3.8-7.3-6.2-12.4-6.2c-8.6,0-15.5,7-15.5,15.5
		c0,0.3,0,0.7,0,1C7.8,34.5,5,38.5,5,43.1c0,5.7,4.2,10.3,9.6,11.1c0.5,0.1,1.1,0.1,1.6,0.1h37.5c0.6,0,1.1,0,1.6-0.1
		c5.4-0.8,9.6-5.5,9.6-11.1C65,38.5,62.1,34.4,58,32.7z M55.4,51c-0.5,0.1-1.1,0.2-1.6,0.2c-0.6,0-1.6,0-1.6,0h-6.3H24.2h-6.3
		c0,0-1.1,0-1.6,0c-0.6,0-1.1-0.1-1.6-0.2c-3.6-0.8-6.4-4-6.4-7.8c0-3,1.7-5.6,4.1-7c0.7-0.4,1.4-0.7,2.2-0.8
		c0.3-0.1,0.6-0.1,0.9-0.1c-0.3-1-0.5-2.1-0.5-3.2c0-0.1,0-0.1,0-0.2c0-1.8,0.4-3.6,1.1-5.2c2-4.2,6.2-7.1,11.1-7.1c4,0,7.6,2,9.8,5
		c0.5,0.7,0.9,1.4,1.3,2.1c0.1,0.3,0.3,0.6,0.4,1c0.3-0.3,0.5-0.7,0.8-1c0.5-0.5,1.1-1,1.7-1.4c1.3-0.8,2.9-1.3,4.5-1.3
		c2.5,0,4.7,1,6.3,2.6c1.4,1.4,2.3,3.3,2.5,5.3c0,0.3,0,0.6,0,0.9c0,0.8-0.1,1.6-0.3,2.4c0.3,0,0.6,0.1,0.9,0.1
		c0.8,0.2,1.5,0.4,2.2,0.8c2.5,1.4,4.2,4,4.2,7C61.7,47,59,50.2,55.4,51z"/>
</g>
</svg>
