<?xml version="1.0" encoding="utf-8"?>
<!-- Generator: Adobe Illustrator 19.0.0, SVG Export Plug-In . SVG Version: 6.00 Build 0)  -->
<svg version="1.1" id="Camada_1" xmlns="http://www.w3.org/2000/svg" xmlns:xlink="http://www.w3.org/1999/xlink" x="0px" y="0px"
	 viewBox="0 0 60 60" style="enable-background:new 0 0 60 60;" xml:space="preserve">
<g id="XMLID_26_">
	<path id="XMLID_47_" d="M30,12.5c-9.6,0-17.5,7.8-17.5,17.5S20.4,47.5,30,47.5c9.6,0,17.5-7.8,17.5-17.5S39.6,12.5,30,12.5z
		 M30,44.1c-7.8,0-14.1-6.3-14.1-14.1c0-7.8,6.3-14.1,14.1-14.1S44.1,22.2,44.1,30C44.1,37.8,37.8,44.1,30,44.1z"/>
	<path id="XMLID_48_" d="M30,9.9c0.9,0,1.7-0.8,1.7-1.7V1.7C31.7,0.8,30.9,0,30,0s-1.7,0.8-1.7,1.7v6.5C28.3,9.1,29.1,9.9,30,9.9z"
		/>
	<path id="XMLID_49_" d="M30,50.1c-0.9,0-1.7,0.8-1.7,1.7v6.5c0,0.9,0.8,1.7,1.7,1.7s1.7-0.8,1.7-1.7v-6.5
		C31.7,50.9,30.9,50.1,30,50.1z"/>
	<path id="XMLID_50_" d="M45.4,16.2c0.4,0,0.9-0.2,1.2-0.5l4.6-4.6c0.7-0.7,0.7-1.7,0-2.4c-0.7-0.7-1.7-0.7-2.4,0l-4.6,4.6
		c-0.7,0.7-0.7,1.7,0,2.4C44.6,16.1,45,16.2,45.4,16.2z"/>
	<path id="XMLID_51_" d="M13.4,44.2l-4.6,4.6c-0.7,0.7-0.7,1.7,0,2.4c0.3,0.3,0.8,0.5,1.2,0.5c0.4,0,0.9-0.2,1.2-0.5l4.6-4.6
		c0.7-0.7,0.7-1.7,0-2.4C15.1,43.6,14,43.6,13.4,44.2z"/>
	<path id="XMLID_52_" d="M58.3,28.3h-6.5c-0.9,0-1.7,0.8-1.7,1.7s0.8,1.7,1.7,1.7h6.5c0.9,0,1.7-0.8,1.7-1.7S59.2,28.3,58.3,28.3z"
		/>
	<path id="XMLID_53_" d="M9.9,30c0-0.9-0.8-1.7-1.7-1.7H1.7C0.8,28.3,0,29.1,0,30s0.8,1.7,1.7,1.7h6.5C9.1,31.7,9.9,30.9,9.9,30z"/>
	<path id="XMLID_54_" d="M46.6,44.2c-0.7-0.7-1.7-0.7-2.4,0c-0.7,0.7-0.7,1.7,0,2.4l4.6,4.6c0.3,0.3,0.8,0.5,1.2,0.5
		c0.4,0,0.9-0.2,1.2-0.5c0.7-0.7,0.7-1.7,0-2.4L46.6,44.2z"/>
	<path id="XMLID_55_" d="M13.4,15.8c0.3,0.3,0.8,0.5,1.2,0.5c0.4,0,0.9-0.2,1.2-0.5c0.7-0.7,0.7-1.7,0-2.4l-4.6-4.6
		c-0.7-0.7-1.7-0.7-2.4,0s-0.7,1.7,0,2.4L13.4,15.8z"/>
</g>
</svg>
