<?xml version="1.0" encoding="utf-8"?>
<!-- Generator: Adobe Illustrator 19.0.0, SVG Export Plug-In . SVG Version: 6.00 Build 0)  -->
<svg version="1.1" id="Camada_1" xmlns="http://www.w3.org/2000/svg" xmlns:xlink="http://www.w3.org/1999/xlink" x="0px" y="0px"
	 viewBox="0 0 70 70" style="enable-background:new 0 0 70 70;" xml:space="preserve">
<g id="XMLID_1_">
	<path id="XMLID_3_" d="M23.1,58.5c-0.4-0.7-1.3-1-2-0.6l-1.7,1V57c0-0.8-0.7-1.5-1.5-1.5s-1.5,0.7-1.5,1.5v1.9l-1.7-1
		c-0.7-0.4-1.6-0.2-2,0.6c-0.4,0.7-0.2,1.6,0.6,2l1.6,0.9l-1.6,0.9c-0.7,0.4-1,1.3-0.6,2c0.3,0.5,0.8,0.8,1.3,0.8
		c0.3,0,0.5-0.1,0.7-0.2l1.7-1V66c0,0.8,0.7,1.5,1.5,1.5s1.5-0.7,1.5-1.5v-1.9l1.7,1c0.2,0.1,0.5,0.2,0.7,0.2c0.5,0,1-0.3,1.3-0.8
		c0.4-0.7,0.2-1.6-0.6-2l-1.6-0.9l1.6-0.9C23.3,60.1,23.5,59.2,23.1,58.5z"/>
	<path id="XMLID_16_" d="M48.2,58.5c-0.4-0.7-1.3-1-2-0.6l-1.7,1V57c0-0.8-0.7-1.5-1.5-1.5s-1.5,0.7-1.5,1.5v1.9l-1.7-1
		c-0.7-0.4-1.6-0.2-2,0.6c-0.4,0.7-0.2,1.6,0.6,2l1.6,0.9l-1.6,0.9c-0.7,0.4-1,1.3-0.6,2c0.3,0.5,0.8,0.8,1.3,0.8
		c0.3,0,0.5-0.1,0.7-0.2l1.7-1V66c0,0.8,0.7,1.5,1.5,1.5s1.5-0.7,1.5-1.5v-1.9l1.7,1c0.2,0.1,0.5,0.2,0.7,0.2c0.5,0,1-0.3,1.3-0.8
		c0.4-0.7,0.2-1.6-0.6-2L46,61.5l1.6-0.9C48.4,60.1,48.7,59.2,48.2,58.5z"/>
	<path id="XMLID_17_" d="M35.7,60.5c-0.4-0.7-1.3-1-2-0.6l-1.7,1V59c0-0.8-0.7-1.5-1.5-1.5c-0.8,0-1.5,0.7-1.5,1.5v1.9l-1.7-1
		c-0.7-0.4-1.6-0.2-2,0.6c-0.4,0.7-0.2,1.6,0.6,2l1.6,0.9l-1.6,0.9c-0.7,0.4-1,1.3-0.6,2c0.3,0.5,0.8,0.8,1.3,0.8
		c0.3,0,0.5-0.1,0.7-0.2l1.7-1V68c0,0.8,0.7,1.5,1.5,1.5c0.8,0,1.5-0.7,1.5-1.5v-1.9l1.7,1c0.2,0.1,0.5,0.2,0.7,0.2
		c0.5,0,1-0.3,1.3-0.8c0.4-0.7,0.2-1.6-0.6-2l-1.6-0.9l1.6-0.9C35.9,62.1,36.1,61.2,35.7,60.5z"/>
	<path id="XMLID_20_" d="M55.5,33.3c2.5-2.4,4.1-5.9,4.1-9.6c0-7.4-6.1-13.5-13.5-13.5c-6,0-11.2,4-12.9,9.5
		c-2.7-2.3-6.2-3.7-10.1-3.7c-8.6,0-15.5,7-15.5,15.5c0,0.3,0,0.7,0,1c-4,1.7-6.8,5.7-6.8,10.3c0,5.7,4.2,10.3,9.6,11.1
		c0.5,0.1,1.1,0.1,1.6,0.1h37.5c0.6,0,1.1,0,1.6-0.1c5.4-0.8,9.6-5.5,9.6-11.1C60.8,38.8,58.7,35.3,55.5,33.3z M46.1,12.8
		c6,0,10.9,4.9,10.9,10.9c0,3-1.2,5.7-3.2,7.7c-0.6-6.1-5.8-11-12-11c-2.3,0-4.4,0.6-6.2,1.7c0-0.1-0.1-0.1-0.1-0.2
		C36.2,16.8,40.7,12.8,46.1,12.8z M51.2,50.7c-0.5,0.1-1.1,0.2-1.6,0.2c-0.6,0-1.6,0-1.6,0h-6.3H20h-6.3c0,0-1.1,0-1.6,0
		c-0.6,0-1.1-0.1-1.6-0.2c-3.6-0.8-6.4-4-6.4-7.8c0-3,1.7-5.6,4.1-7c0.7-0.4,1.4-0.7,2.2-0.8c0.3-0.1,0.6-0.1,0.9-0.1
		c-0.3-1-0.5-2.1-0.5-3.2c0-0.1,0-0.1,0-0.2c0-1.8,0.4-3.6,1.1-5.2c2-4.2,6.2-7.1,11.1-7.1c3.8,0,7.2,1.8,9.5,4.5
		c0.1,0.1,0.2,0.3,0.4,0.4c0.5,0.7,0.9,1.4,1.3,2.1c0.1,0.3,0.3,0.6,0.4,1c0.3-0.3,0.5-0.7,0.8-1c0,0,0,0,0.1-0.1
		c0.5-0.5,1.1-0.9,1.7-1.3c1.3-0.8,2.9-1.3,4.5-1.3c2.5,0,4.7,1,6.3,2.6c1.4,1.4,2.3,3.3,2.5,5.3c0,0.3,0,0.6,0,0.9
		c0,0.4,0,0.8-0.1,1.1c-0.1,0.4-0.1,0.9-0.3,1.3c0.3,0,0.6,0.1,0.9,0.1c0.5,0.1,1,0.3,1.4,0.5c0.3,0.1,0.5,0.2,0.8,0.3
		c2.5,1.4,4.2,4,4.2,7C57.5,46.7,54.8,49.9,51.2,50.7z"/>
	<path id="XMLID_22_" d="M46.1,8.1c0.7,0,1.3-0.6,1.3-1.3v-5c0-0.7-0.6-1.3-1.3-1.3s-1.3,0.6-1.3,1.3v5C44.8,7.5,45.3,8.1,46.1,8.1z
		"/>
	<path id="XMLID_23_" d="M58,13.1c0.3,0,0.7-0.1,0.9-0.4l3.5-3.5c0.5-0.5,0.5-1.3,0-1.8c-0.5-0.5-1.3-0.5-1.8,0l-3.5,3.5
		c-0.5,0.5-0.5,1.3,0,1.8C57.3,12.9,57.6,13.1,58,13.1z"/>
	<path id="XMLID_24_" d="M67.9,22.4h-5c-0.7,0-1.3,0.6-1.3,1.3s0.6,1.3,1.3,1.3h5c0.7,0,1.3-0.6,1.3-1.3S68.6,22.4,67.9,22.4z"/>
	<path id="XMLID_25_" d="M33.2,12.7c0.3,0.3,0.6,0.4,0.9,0.4c0.3,0,0.7-0.1,0.9-0.4c0.5-0.5,0.5-1.3,0-1.8l-3.5-3.5
		c-0.5-0.5-1.3-0.5-1.8,0c-0.5,0.5-0.5,1.3,0,1.8L33.2,12.7z"/>
</g>
</svg>
