<svg version="1.1" id="Camada_1" xmlns="http://www.w3.org/2000/svg" xmlns:xlink="http://www.w3.org/1999/xlink" x="0px" y="0px"
	 viewBox="0 0 8 48" style="enable-background:new 0 0 8 48;" xml:space="preserve">
<path id="XMLID_2_" d="M7.9,42.4l-3.7,5.5c-0.1,0.2-0.4,0.2-0.5,0l-3.7-5.5c-0.1-0.2,0-0.5,0.2-0.5h2.8V30.1c0-0.4,0.4-0.8,0.8-0.8
	s0.8,0.4,0.8,0.8V42h3C7.9,42,8.1,42.2,7.9,42.4z"/>
<path id="XMLID_3_" d="M7.9,5.6L4.2,0.1C4.1,0,3.9,0,3.8,0.1L0.1,5.6C-0.1,5.8,0.1,6,0.3,6h2.8v11.8c0,0.4,0.4,0.8,0.8,0.8
	s0.8-0.4,0.8-0.8V6h3C7.9,6,8.1,5.8,7.9,5.6z"/>
</svg>
