<?xml version="1.0" encoding="utf-8"?>
<!-- Generator: Adobe Illustrator 19.0.0, SVG Export Plug-In . SVG Version: 6.00 Build 0)  -->
<svg version="1.1" id="Camada_1" xmlns="http://www.w3.org/2000/svg" xmlns:xlink="http://www.w3.org/1999/xlink" x="0px" y="0px"
	 viewBox="0 0 70 70" style="enable-background:new 0 0 70 70;" xml:space="preserve">
<path id="XMLID_4_" d="M58,32.9c0-1.4-0.3-2.8-0.7-4.1c3.5-1.3,6.3-4.2,7.3-7.8c0.2-0.8,0.4-1.7,0.5-2.6c-0.7,0.4-1.5,0.6-2.4,0.8
	c-0.6,0.1-1.2,0.2-1.8,0.2c-5.3,0-9.5-4.3-9.5-9.5c0-0.5,0-1,0.1-1.4c0.1-0.8,0.4-1.6,0.7-2.4c-0.9,0.1-1.8,0.3-2.6,0.5
	c-4.7,1.6-8.1,6-8.1,11.2c0,1.3,0.2,2.6,0.6,3.7c-0.8,0.3-1.6,0.7-2.4,1.1c-2.8-3.8-7.3-6.2-12.4-6.2c-8.6,0-15.5,7-15.5,15.5
	c0,0.3,0,0.7,0,1C7.8,34.7,5,38.7,5,43.4c0,5.7,4.2,10.3,9.6,11.1c0.5,0.1,1.1,0.1,1.6,0.1h12l-0.6,1.5c-0.1,0.4-0.1,0.8,0.1,1.1
	c0.2,0.3,0.6,0.5,1,0.5h3.9L28,68.3c-0.2,0.5,0,1.2,0.5,1.5c0.2,0.1,0.4,0.2,0.6,0.2c0.3,0,0.7-0.1,0.9-0.4l12.9-15h10.8
	c0.6,0,1.1,0,1.6-0.1C60.8,53.7,65,49,65,43.4C65,38.7,62.1,34.6,58,32.9z M49.1,9.2c0,0.2,0,0.4,0,0.6c0,6.5,5.3,11.8,11.8,11.8
	c0.4,0,0.7,0,1.1-0.1c-1.1,2.4-3.2,4.3-5.7,5.2c-2.1-3.5-6-5.9-10.4-5.9c-0.5,0-1.1,0-1.6,0.1c-0.4-1-0.6-2.1-0.6-3.2
	C43.7,14,45.9,10.7,49.1,9.2z M33.4,61.9l1.8-4.2l0.7-1.6c0.2-0.4-0.1-0.8-0.5-0.8h-1.7h-3.3l0.3-0.7l1.2-3.3l3.9-10.4H43l-4.3,7.7
	l-0.8,1.5C37.7,50.5,38,51,38.5,51h1.7h2.6l-0.3,0.3l-2.8,3.3L33.4,61.9z M55.3,51.2c-0.5,0.1-1.1,0.2-1.6,0.2c-0.6,0-1.6,0-1.6,0
	h-6.3h-0.1l0.6-0.8c0.3-0.4,0.4-0.9,0.2-1.3s-0.6-0.7-1.1-0.7h-3.9l4.6-8.3c0.2-0.4,0.2-0.8,0-1.2c-0.2-0.4-0.6-0.6-1-0.6H35
	c-0.5,0-0.9,0.3-1.1,0.8l-4.5,12h-5.3h-6.3c0,0-1.1,0-1.6,0c-0.6,0-1.1-0.1-1.6-0.2c-3.6-0.8-6.4-4-6.4-7.8c0-3,1.7-5.6,4.1-7
	c0.7-0.4,1.4-0.7,2.2-0.8c0.3-0.1,0.6-0.1,0.9-0.1c-0.3-1-0.5-2.1-0.5-3.2c0-0.1,0-0.1,0-0.2c0-1.8,0.4-3.6,1.1-5.2
	c2-4.2,6.2-7.1,11.1-7.1c4,0,7.6,2,9.8,5c0.5,0.7,0.9,1.4,1.3,2.1c0.1,0.3,0.3,0.6,0.4,1c0.3-0.3,0.5-0.7,0.8-1
	c0.5-0.5,1.1-1,1.7-1.4c1.3-0.8,2.9-1.3,4.5-1.3c2.5,0,4.7,1,6.3,2.6c1.4,1.4,2.3,3.3,2.5,5.3c0,0.3,0,0.6,0,0.9
	c0,0.8-0.1,1.6-0.3,2.4c0.3,0,0.6,0.1,0.9,0.1c0.8,0.2,1.5,0.4,2.2,0.8c2.5,1.4,4.2,4,4.2,7C61.7,47.2,59,50.4,55.3,51.2z"/>
</svg>
