<?xml version="1.0" encoding="utf-8"?>
<!-- Generator: Adobe Illustrator 19.0.0, SVG Export Plug-In . SVG Version: 6.00 Build 0)  -->
<svg version="1.1" id="Camada_1" xmlns="http://www.w3.org/2000/svg" xmlns:xlink="http://www.w3.org/1999/xlink" x="0px" y="0px"
	 viewBox="0 0 60 60" style="enable-background:new 0 0 60 60;" xml:space="preserve">
<path id="XMLID_15_" d="M24.3,9.7c0-1.3,0.1-2.5,0.3-3.8c0.2-1.6,0.7-3.2,1.2-4.8c-1.6,0.2-3.2,0.6-4.8,1.1C9,6.2,1,17.3,1,29.8
	c0,16,13,29.1,29.1,29.1c12.8,0,24.3-8.6,27.9-21c0.5-1.6,0.8-3.2,1-4.8c-1.5,0.6-3.1,1.1-4.7,1.4c-1.6,0.3-3.2,0.4-4.7,0.4
	C35.6,34.9,24.3,23.6,24.3,9.7z M53.9,38.4L53.2,40c-4,9.2-13.1,15.1-23.1,15.1c-13.9,0-25.3-11.3-25.3-25.3
	c0-9.6,5.6-18.5,14.3-22.7l1.5-0.7l-0.1,1.7c0,0.5,0,1.1,0,1.6c0,16,13,29.1,29.1,29.1c0.8,0,1.7,0,2.7-0.1L53.9,38.4z"/>
</svg>
