<?xml version="1.0" encoding="utf-8"?>
<!-- Generator: Adobe Illustrator 19.0.0, SVG Export Plug-In . SVG Version: 6.00 Build 0)  -->
<svg version="1.1" id="Camada_1" xmlns="http://www.w3.org/2000/svg" xmlns:xlink="http://www.w3.org/1999/xlink" x="0px" y="0px"
	 viewBox="0 0 60 60" style="enable-background:new 0 0 60 60;" xml:space="preserve">
<path id="XMLID_27_" d="M54,33.6c-1.5,0.3-3,0.4-4.5,0.4C36.1,34,25.2,23.1,25.2,9.8c0-1.2,0.1-2.5,0.3-3.6C25.8,4,26.4,1.9,27.3,0
	c-2.3,0.2-4.5,0.7-6.7,1.4C8.6,5.4,0,16.6,0,29.9C0,46.5,13.4,60,30,60c13.7,0,25.2-9.2,28.9-21.7c0.6-2.2,1-4.4,1.1-6.7
	C58.2,32.5,56.1,33.2,54,33.6z M30,54.2c-13.4,0-24.3-10.9-24.3-24.3c0-9.6,5.6-17.9,13.7-21.8c0,0.5,0,1.1,0,1.6
	c0,16.6,13.5,30.1,30.1,30.1c0.9,0,1.8,0,2.7-0.1C48.5,48.2,39.9,54.2,30,54.2z"/>
</svg>
