<?xml version="1.0" encoding="utf-8"?>
<!-- Generator: Adobe Illustrator 19.0.0, SVG Export Plug-In . SVG Version: 6.00 Build 0)  -->
<svg version="1.1" id="Camada_1" xmlns="http://www.w3.org/2000/svg" xmlns:xlink="http://www.w3.org/1999/xlink" x="0px" y="0px"
	 viewBox="31 -11 70 70" style="enable-background:new 31 -11 70 70;" xml:space="preserve">
<g id="XMLID_1_">
	<path id="XMLID_16_" d="M89,18.9c0-1.4-0.3-2.8-0.7-4.1c3.5-1.3,6.3-4.2,7.3-7.8c0.2-0.8,0.4-1.7,0.5-2.6c-0.7,0.4-1.5,0.6-2.4,0.8
		c-0.6,0.1-1.2,0.2-1.8,0.2c-5.3,0-9.5-4.3-9.5-9.5c0-0.5,0-1,0.1-1.4c0.1-0.8,0.4-1.6,0.7-2.4c-0.9,0.1-1.8,0.3-2.6,0.5
		c-4.7,1.6-8.1,6-8.1,11.2c0,1.3,0.2,2.6,0.6,3.7c-0.8,0.3-1.6,0.7-2.4,1.1c-2.8-3.8-7.3-6.2-12.4-6.2c-8.6,0-15.5,7-15.5,15.5
		c0,0.3,0,0.7,0,1c-4,1.8-6.8,5.8-6.8,10.4c0,5.7,4.2,10.3,9.6,11.1c0.5,0.1,1.1,0.1,1.6,0.1h37.5c0.6,0,1.1,0,1.6-0.1
		C91.8,39.7,96,35,96,29.3C96,24.7,93.1,20.6,89,18.9z M74.7,3.8c0-3.8,2.2-7,5.4-8.6c0,0.2,0,0.4,0,0.6c0,6.5,5.3,11.8,11.8,11.8
		c0.4,0,0.7,0,1.1-0.1c-1.1,2.4-3.2,4.3-5.7,5.2c-2.1-3.5-6-5.9-10.4-5.9c-0.5,0-1.1,0-1.6,0.1C74.9,6,74.7,4.9,74.7,3.8z
		 M86.3,37.2c-0.5,0.1-1.1,0.2-1.6,0.2c-0.6,0-1.6,0-1.6,0h-6.3H55.1h-6.3c0,0-1.1,0-1.6,0c-0.6,0-1.1-0.1-1.6-0.2
		c-3.6-0.8-6.4-4-6.4-7.8c0-3,1.7-5.6,4.1-7c0.7-0.4,1.4-0.7,2.2-0.8c0.3-0.1,0.6-0.1,0.9-0.1c-0.3-1-0.5-2.1-0.5-3.2
		c0-0.1,0-0.1,0-0.2c0-1.8,0.4-3.6,1.1-5.2c2-4.2,6.2-7.1,11.1-7.1c4,0,7.6,2,9.8,5c0.5,0.7,0.9,1.4,1.3,2.1c0.1,0.3,0.3,0.6,0.4,1
		c0.3-0.3,0.5-0.7,0.8-1c0.5-0.5,1.1-1,1.7-1.4c1.3-0.8,2.9-1.3,4.5-1.3c2.5,0,4.7,1,6.3,2.6c1.4,1.4,2.3,3.3,2.5,5.3
		c0,0.3,0,0.6,0,0.9c0,0.8-0.1,1.6-0.3,2.4c0.3,0,0.6,0.1,0.9,0.1c0.8,0.2,1.5,0.4,2.2,0.8c2.5,1.4,4.2,4,4.2,7
		C92.7,33.2,90,36.4,86.3,37.2z"/>
</g>
</svg>
